<svg xmlns="http://www.w3.org/2000/svg" xmlns:xlink="http://www.w3.org/1999/xlink" width="594" height="146"><defs><path id="b" d="M0 0h86v82H0z"/><path id="e" d="M0 0h86v82H0z"/><path id="h" d="M0 0h86v82H0z"/><path id="k" d="M0 0h86v82H0z"/><path id="n" d="M0 0h86v82H0z"/><path id="p" d="M53.896 27.232a2.811 2.811 0 0 0 2.673 1.94h26.616c2.722 0 3.853 3.48 1.652 5.078L63.304 49.882a2.807 2.807 0 0 0-1.021 3.139l8.225 25.291c.84 2.587-2.122 4.738-4.325 3.14L44.651 65.82a2.813 2.813 0 0 0-3.302 0L19.816 81.45c-2.202 1.599-5.165-.552-4.324-3.139l8.224-25.291a2.805 2.805 0 0 0-1.02-3.14L1.162 34.252c-2.201-1.6-1.07-5.08 1.652-5.08h26.616a2.809 2.809 0 0 0 2.672-1.94l8.225-25.29c.84-2.588 4.503-2.588 5.344 0l8.224 25.29z"/><filter id="a" width="200%" height="204.9%" x="-50%" y="-52.4%"><feOffset dy="7" in="SourceAlpha" result="shadowOffsetOuter1"/><feGaussianBlur in="shadowOffsetOuter1" result="shadowBlurOuter1" stdDeviation="7.5"/><feColorMatrix in="shadowBlurOuter1" result="shadowMatrixOuter1" values="0 0 0 0 0.00384182669 0 0 0 0 0.467472672 0 0 0 0 0.891189396 0 0 0 0.33 0"/><feMerge><feMergeNode in="shadowMatrixOuter1"/><feMergeNode in="SourceGraphic"/></feMerge></filter><filter id="d" width="200%" height="204.9%" x="-50%" y="-52.4%"><feOffset dy="7" in="SourceAlpha" result="shadowOffsetOuter1"/><feGaussianBlur in="shadowOffsetOuter1" result="shadowBlurOuter1" stdDeviation="7.5"/><feColorMatrix in="shadowBlurOuter1" result="shadowMatrixOuter1" values="0 0 0 0 0.00384182669 0 0 0 0 0.467472672 0 0 0 0 0.891189396 0 0 0 0.33 0"/><feMerge><feMergeNode in="shadowMatrixOuter1"/><feMergeNode in="SourceGraphic"/></feMerge></filter><filter id="g" width="200%" height="204.9%" x="-50%" y="-52.4%"><feOffset dy="7" in="SourceAlpha" result="shadowOffsetOuter1"/><feGaussianBlur in="shadowOffsetOuter1" result="shadowBlurOuter1" stdDeviation="7.5"/><feColorMatrix in="shadowBlurOuter1" result="shadowMatrixOuter1" values="0 0 0 0 0.00384182669 0 0 0 0 0.467472672 0 0 0 0 0.891189396 0 0 0 0.33 0"/><feMerge><feMergeNode in="shadowMatrixOuter1"/><feMergeNode in="SourceGraphic"/></feMerge></filter><filter id="j" width="200%" height="204.9%" x="-50%" y="-52.4%"><feOffset dy="7" in="SourceAlpha" result="shadowOffsetOuter1"/><feGaussianBlur in="shadowOffsetOuter1" result="shadowBlurOuter1" stdDeviation="7.5"/><feColorMatrix in="shadowBlurOuter1" result="shadowMatrixOuter1" values="0 0 0 0 0.00384182669 0 0 0 0 0.467472672 0 0 0 0 0.891189396 0 0 0 0.33 0"/><feMerge><feMergeNode in="shadowMatrixOuter1"/><feMergeNode in="SourceGraphic"/></feMerge></filter><filter id="m" width="200%" height="204.9%" x="-50%" y="-52.4%"><feOffset dy="7" in="SourceAlpha" result="shadowOffsetOuter1"/><feGaussianBlur in="shadowOffsetOuter1" result="shadowBlurOuter1" stdDeviation="7.5"/><feColorMatrix in="shadowBlurOuter1" result="shadowMatrixOuter1" values="0 0 0 0 0.00384182669 0 0 0 0 0.467472672 0 0 0 0 0.891189396 0 0 0 0.33 0"/><feMerge><feMergeNode in="shadowMatrixOuter1"/><feMergeNode in="SourceGraphic"/></feMerge></filter></defs><g fill="none" fill-rule="evenodd"><g filter="url(#a)" transform="translate(32 32)"><mask id="c" fill="#fff"><use xlink:href="#b"/></mask><path fill="#0077E3" d="M53.896 27.232a2.811 2.811 0 0 0 2.673 1.94h26.616c2.722 0 3.853 3.48 1.652 5.078L63.304 49.882a2.807 2.807 0 0 0-1.021 3.139l8.225 25.291c.84 2.587-2.122 4.738-4.325 3.14L44.651 65.82a2.813 2.813 0 0 0-3.302 0L19.816 81.45c-2.202 1.599-5.165-.552-4.324-3.139l8.224-25.291a2.805 2.805 0 0 0-1.02-3.14L1.162 34.252c-2.201-1.6-1.07-5.08 1.652-5.08h26.616a2.809 2.809 0 0 0 2.672-1.94l8.225-25.29c.84-2.588 4.503-2.588 5.344 0l8.224 25.29z" mask="url(#c)"/></g><g filter="url(#d)" transform="translate(254 32)"><mask id="f" fill="#fff"><use xlink:href="#e"/></mask><path fill="#0077E3" d="M53.896 27.232a2.811 2.811 0 0 0 2.673 1.94h26.616c2.722 0 3.853 3.48 1.652 5.078L63.304 49.882a2.807 2.807 0 0 0-1.021 3.139l8.225 25.291c.84 2.587-2.122 4.738-4.325 3.14L44.651 65.82a2.813 2.813 0 0 0-3.302 0L19.816 81.45c-2.202 1.599-5.165-.552-4.324-3.139l8.224-25.291a2.805 2.805 0 0 0-1.02-3.14L1.162 34.252c-2.201-1.6-1.07-5.08 1.652-5.08h26.616a2.809 2.809 0 0 0 2.672-1.94l8.225-25.29c.84-2.588 4.503-2.588 5.344 0l8.224 25.29z" mask="url(#f)"/></g><g filter="url(#g)" transform="translate(143 32)"><mask id="i" fill="#fff"><use xlink:href="#h"/></mask><path fill="#0077E3" d="M53.896 27.232a2.811 2.811 0 0 0 2.673 1.94h26.616c2.722 0 3.853 3.48 1.652 5.078L63.304 49.882a2.807 2.807 0 0 0-1.021 3.139l8.225 25.291c.84 2.587-2.122 4.738-4.325 3.14L44.651 65.82a2.813 2.813 0 0 0-3.302 0L19.816 81.45c-2.202 1.599-5.165-.552-4.324-3.139l8.224-25.291a2.805 2.805 0 0 0-1.02-3.14L1.162 34.252c-2.201-1.6-1.07-5.08 1.652-5.08h26.616a2.809 2.809 0 0 0 2.672-1.94l8.225-25.29c.84-2.588 4.503-2.588 5.344 0l8.224 25.29z" mask="url(#i)"/></g><g filter="url(#j)" transform="translate(365 32)"><mask id="l" fill="#fff"><use xlink:href="#k"/></mask><path fill="#0077E3" d="M53.896 27.232a2.811 2.811 0 0 0 2.673 1.94h26.616c2.722 0 3.853 3.48 1.652 5.078L63.304 49.882a2.807 2.807 0 0 0-1.021 3.139l8.225 25.291c.84 2.587-2.122 4.738-4.325 3.14L44.651 65.82a2.813 2.813 0 0 0-3.302 0L19.816 81.45c-2.202 1.599-5.165-.552-4.324-3.139l8.224-25.291a2.805 2.805 0 0 0-1.02-3.14L1.162 34.252c-2.201-1.6-1.07-5.08 1.652-5.08h26.616a2.809 2.809 0 0 0 2.672-1.94l8.225-25.29c.84-2.588 4.503-2.588 5.344 0l8.224 25.29z" mask="url(#l)"/></g><g filter="url(#m)" transform="translate(476 32)"><mask id="o" fill="#fff"><use xlink:href="#n"/></mask><g mask="url(#o)"><mask id="q" fill="#fff"><use xlink:href="#p"/></mask><use fill="#0077E3" xlink:href="#p"/><rect width="29" height="106" x="70" y="-24" fill="#FFF" mask="url(#q)" rx="14.5"/></g></g></g></svg>